<?xml version="1.0" encoding="utf-8"?>
<!-- Generator: Adobe Illustrator 21.0.0, SVG Export Plug-In . SVG Version: 6.00 Build 0)  -->
<svg version="1.1" id="Layer_1" xmlns="http://www.w3.org/2000/svg" xmlns:xlink="http://www.w3.org/1999/xlink" x="0px" y="0px"
	 viewBox="0 0 95 153" style="enable-background:new 0 0 95 153;" xml:space="preserve">
<style type="text/css">
	.st0{fill:#FFFFFF;}
	.st1{fill:#F2D73D;}
</style>
<g>
	<path class="st0" d="M15.2,83.6H3.8c-2.1,0-3.8-1.7-3.8-3.8V68.4c0-2.1,1.7-3.8,3.8-3.8h11.4c2.1,0,3.8,1.7,3.8,3.8v11.4
		C19,81.9,17.3,83.6,15.2,83.6z"/>
	<path class="st0" d="M91.2,83.6H32.3c-2.1,0-3.8-1.7-3.8-3.8V68.4c0-2.1,1.7-3.8,3.8-3.8h58.9c2.1,0,3.8,1.7,3.8,3.8v11.4
		C95,81.9,93.3,83.6,91.2,83.6z"/>
	<path class="st0" d="M15.2,51.3H3.8c-2.1,0-3.8-1.7-3.8-3.8V36.1c0-2.1,1.7-3.8,3.8-3.8h11.4c2.1,0,3.8,1.7,3.8,3.8v11.4
		C19,49.6,17.3,51.3,15.2,51.3z"/>
	<path class="st0" d="M91.2,51.3H32.3c-2.1,0-3.8-1.7-3.8-3.8V36.1c0-2.1,1.7-3.8,3.8-3.8h58.9c2.1,0,3.8,1.7,3.8,3.8v11.4
		C95,49.6,93.3,51.3,91.2,51.3z"/>
	<path class="st0" d="M15.2,19H3.8C1.7,19,0,17.3,0,15.2V3.8C0,1.7,1.7,0,3.8,0h11.4C17.3,0,19,1.7,19,3.8v11.4
		C19,17.3,17.3,19,15.2,19z"/>
	<path class="st0" d="M91.2,19H32.3c-2.1,0-3.8-1.7-3.8-3.8V3.8c0-2.1,1.7-3.8,3.8-3.8h58.9C93.3,0,95,1.7,95,3.8v11.4
		C95,17.3,93.3,19,91.2,19z"/>
</g>
<path class="st1" d="M82.1,108.3l-8.8-8.8c-1.2-1.2-3.2-1.2-4.4,0L40.4,128l-14.3-14.4c-1.2-1.2-3.2-1.2-4.4,0l-8.8,8.8
	c-1.2,1.2-1.2,3.2,0,4.4l24.8,25c0.2,0.2,0.3,0.3,0.5,0.4l0,0c1.2,1.2,3.2,1.2,4.4,0l39.5-39.5C83.3,111.4,83.3,109.5,82.1,108.3z"
	/>
</svg>
