<?xml version="1.0" encoding="utf-8"?>
<!-- Generator: Adobe Illustrator 21.0.0, SVG Export Plug-In . SVG Version: 6.00 Build 0)  -->
<svg version="1.1" id="Layer_1" xmlns="http://www.w3.org/2000/svg" xmlns:xlink="http://www.w3.org/1999/xlink" x="0px" y="0px"
	 viewBox="0 0 95 85.9" style="enable-background:new 0 0 95 85.9;" xml:space="preserve">
<style type="text/css">
	.st0{fill:#FFFFFF;}
	.st1{fill:#344551;}
	.st2{fill:#F2D73D;}
</style>
<g>
	<path class="st1" d="M15.2,84.7H3.8C1.7,84.7,0,83,0,80.9V69.5c0-2.1,1.7-3.8,3.8-3.8h11.4c2.1,0,3.8,1.7,3.8,3.8v11.4
		C19,83,17.3,84.7,15.2,84.7z"/>
	<path class="st1" d="M91.2,84.7H32.3c-2.1,0-3.8-1.7-3.8-3.8V69.5c0-2.1,1.7-3.8,3.8-3.8h58.9c2.1,0,3.8,1.7,3.8,3.8v11.4
		C95,83,93.3,84.7,91.2,84.7z"/>
	<path class="st1" d="M15.2,52.4H3.8c-2.1,0-3.8-1.7-3.8-3.8V37.2c0-2.1,1.7-3.8,3.8-3.8h11.4c2.1,0,3.8,1.7,3.8,3.8v11.4
		C19,50.7,17.3,52.4,15.2,52.4z"/>
	<path class="st1" d="M91.2,52.4H32.3c-2.1,0-3.8-1.7-3.8-3.8V37.2c0-2.1,1.7-3.8,3.8-3.8h58.9c2.1,0,3.8,1.7,3.8,3.8v11.4
		C95,50.7,93.3,52.4,91.2,52.4z"/>
	<path class="st1" d="M15.2,20.1H3.8c-2.1,0-3.8-1.7-3.8-3.8V4.9c0-2.1,1.7-3.8,3.8-3.8h11.4c2.1,0,3.8,1.7,3.8,3.8v11.4
		C19,18.4,17.3,20.1,15.2,20.1z"/>
	<path class="st1" d="M91.2,20.1H32.3c-2.1,0-3.8-1.7-3.8-3.8V4.9c0-2.1,1.7-3.8,3.8-3.8h58.9c2.1,0,3.8,1.7,3.8,3.8v11.4
		C95,18.4,93.3,20.1,91.2,20.1z"/>
</g>
</svg>
