<?xml version="1.0" encoding="utf-8"?>
<!-- Generator: Adobe Illustrator 21.0.0, SVG Export Plug-In . SVG Version: 6.00 Build 0)  -->
<svg version="1.1" id="Layer_1" xmlns="http://www.w3.org/2000/svg" xmlns:xlink="http://www.w3.org/1999/xlink" x="0px" y="0px"
	 viewBox="0 0 95 85.9" style="enable-background:new 0 0 95 85.9;" xml:space="preserve">
<style type="text/css">
	.st0{fill:#F2D73D;}
	.st1{fill:#FFFFFF;}
	.st2{enable-background:new    ;}
</style>
<g>
	<g>
		<path class="st0" d="M47.5,81.5c-21.2,0-38.6-17.4-38.6-38.6S26.3,4.4,47.5,4.4S86.1,21.8,86.1,43S68.7,81.5,47.5,81.5z"/>
		<path class="st1" d="M47.5,8.6c19.1,0,34.3,15.5,34.3,34.3S66.6,77.3,47.5,77.3S13.2,61.8,13.2,42.9S28.4,8.6,47.5,8.6 M47.5,0.1
			C24,0.1,4.7,19.4,4.7,42.9S24,85.7,47.5,85.7s42.8-19.3,42.8-42.8S71,0.1,47.5,0.1L47.5,0.1z"/>
	</g>
	<g class="st2">
		<path class="st1" d="M54,62.6H43.7V32.7h-4.5v-9.1H54V62.6z"/>
	</g>
</g>
</svg>
