<?xml version="1.0" encoding="utf-8"?>
<!-- Generator: Adobe Illustrator 21.0.0, SVG Export Plug-In . SVG Version: 6.00 Build 0)  -->
<svg version="1.1" id="Layer_1" xmlns="http://www.w3.org/2000/svg" xmlns:xlink="http://www.w3.org/1999/xlink" x="0px" y="0px"
	 viewBox="0 0 2500 2500" style="enable-background:new 0 0 2500 2500;" xml:space="preserve">
<style type="text/css">
	.st0{fill:#FFFFFF;}
</style>
<path class="st0" d="M2386.2,1247.4c0-314.3-110.7-582.3-332.4-803.8c-219-221.6-489.5-332.4-803.8-332.4
	c-311.8,0-582.3,110.8-803.8,332.4c-221.6,221.6-332.4,489.5-332.4,803.8c0,314.3,110.8,582.3,332.4,806.5
	c221.6,224.1,492.1,334.9,803.8,334.9c314.3,0,579.7-110.8,803.8-334.9C2275.4,1829.7,2386.2,1561.7,2386.2,1247.4L2386.2,1247.4z
	 M1383.9,353.4c12.9-12.9,25.8-15.5,36.1-10.3l23.2,30.9l36.1,412.2l517.9-54.1c10.3,0,23.2,5.2,33.5,15.5l2.6,18.1l-2.6,12.9
	l-293.7,468.9l404.5,301.4c10.3,7.7,15.4,18.1,15.4,25.8l-2.5,7.7c0,15.5-7.7,23.3-23.2,25.8l-391.6,105.6l-18,319.5l-10.3,23.2
	l-30.9,5.2l-219-95.3c-15.4-5.2-20.6-15.5-10.3-31c0-20.6,10.3-25.7,25.8-18l172.6,23.2v-247.4c0-36,12.9-56.7,38.6-61.8l221.6-82.4
	l-286-257.6c-7.8-7.7-12.9-20.6-12.9-30.9l5.1-18l177.8-342.7l-363.3-7.7c-12.9,0-25.8-5.2-30.9-10.3c-5.2,0-10.3-10.3-15.5-25.8
	l-46.3-283.4l-250,198.4c-20.6,25.8-43.8,28.3-74.7,7.8L760.5,675.5l25.8,175.2v2.6c0,15.5-7.8,23.2-20.6,25.8
	c-18,5.1-25.8-2.6-30.9-18.1L631.7,531.2c-5.1-10.3,0-20.6,12.9-30.9c12.9-7.7,23.2-7.7,36.1,0l363.2,198.4L1383.9,353.4
	L1383.9,353.4z M861,953.7l5.1-5.1c144.3-90.1,247.3-97.9,311.7-20.6c56.7,74.7,46.4,144.3-33.5,211.3l-157.2-121.1
	C951.2,989.8,909.9,969.2,861,953.7L861,953.7z M709,1013c92.7-10.3,172.6,10.3,244.8,61.8c190.7,139.1,270.5,242.1,244.8,304
	c-10.3,23.2-25.8,38.6-54.1,46.4c-56.7,12.9-126.3,2.6-198.4-23.2c-69.5-25.7-136.5-61.9-198.4-113.4l-41.2,2.6
	c-7.8,12.9-5.2,28.4,2.5,46.4c38.6,38.6,103.1,77.3,190.7,115.9c5.1,51.5,15.4,85,28.3,103c46.4,74.8,115.9,103.1,206.1,87.6
	c-43.8,72.1-46.4,136.6-5.1,193.2c28.3,41.1,59.2,61.8,92.7,64.4l-69.6,54.1c-59.3,46.4-131.4,72.1-213.8,69.6
	c-77.3-2.6-136.5-25.8-177.8-69.6c-38.6-43.8-56.7-92.7-56.7-149.5c0-51.5,15.5-97.9,43.8-136.5c-51.5,15.4-100.5,12.9-152-2.6
	c-59.3-18.1-108.2-54.1-144.3-110.8c-38.6-56.6-54.1-118.5-56.7-188.1c-2.6-77.3,23.2-152,69.6-221.5
	C528.6,1067.1,611.1,1020.7,709,1013L709,1013z M1087.7,1582.3c-41.2,0-74.7-23.2-103-66.9l-20.6-38.7
	c74.7,25.8,144.3,30.9,203.5,18.1c51.5-10.3,82.4-36,100.5-82.4c28.4-64.4,2.6-141.7-82.4-231.9c110.8-72.2,198.3-61.8,260.2,28.4
	c61.8,87.6,10.3,185.5-144.3,291.1C1208.8,1559.2,1139.2,1587.5,1087.7,1582.3L1087.7,1582.3z M1301.5,1561.7
	c123.7-85,211.2-87.6,260.2-12.9c49,74.7,12.9,154.6-110.7,242.2c-59.2,41.2-118.6,59.3-170,54.1c-43.8-5.2-72.1-20.6-92.7-46.3
	C1134.1,1724.1,1170.2,1646.8,1301.5,1561.7L1301.5,1561.7z"/>
</svg>
