<?xml version="1.0" encoding="utf-8"?>
<!-- Generator: Adobe Illustrator 21.0.0, SVG Export Plug-In . SVG Version: 6.00 Build 0)  -->
<svg version="1.1" id="Layer_1" xmlns="http://www.w3.org/2000/svg" xmlns:xlink="http://www.w3.org/1999/xlink" x="0px" y="0px"
	 viewBox="0 0 95 85.9" style="enable-background:new 0 0 95 85.9;" xml:space="preserve">
<style type="text/css">
	.st0{fill:#FFFFFF;}
	.st1{fill:#344551;}
	.st2{fill:#F2D73D;}
</style>
<g>
	<g>
		<path class="st0" d="M-262.5,57.9h-90c-2.8,0-5-2.2-5-5v-20c0-2.8,2.2-5,5-5h90c2.8,0,5,2.2,5,5v20
			C-257.5,55.7-259.7,57.9-262.5,57.9z"/>
	</g>
	<g>
		<path class="st0" d="M-292.5-2.1v90c0,2.8-2.2,5-5,5h-20c-2.8,0-5-2.2-5-5v-90c0-2.8,2.2-5,5-5h20C-294.7-7.1-292.5-4.8-292.5-2.1
			z"/>
	</g>
</g>
<g>
	<path class="st1" d="M-150-2.1v90h-75v-90H-150 M-140-12.1h-95v110h95V-12.1L-140-12.1z"/>
	<g>
		<rect x="-215" y="7.9" class="st1" width="55" height="10"/>
	</g>
	<g>
		<rect x="-215" y="28" class="st1" width="55" height="10"/>
	</g>
	<g>
		<rect x="-215" y="48" class="st1" width="25" height="10"/>
	</g>
	<g>
		<rect x="-215" y="68" class="st1" width="25" height="10"/>
	</g>
	<text transform="matrix(1 0 0 1 -181.5648 77.9799)" class="st1" style="font-family:'EgonSansBlack'; font-size:42.444px;">2</text>
</g>
<g>
	<path class="st0" d="M-150-125.6v90h-75v-90H-150 M-140-135.6h-95v110h95V-135.6L-140-135.6z"/>
	<g>
		<rect x="-215" y="-115.6" class="st0" width="55" height="10"/>
	</g>
	<g>
		<rect x="-215" y="-95.5" class="st0" width="55" height="10"/>
	</g>
	<g>
		<rect x="-215" y="-75.5" class="st0" width="25" height="10"/>
	</g>
	<g>
		<rect x="-215" y="-55.5" class="st0" width="25" height="10"/>
	</g>
	<text transform="matrix(1 0 0 1 -181.5648 -45.5201)" class="st0" style="font-family:'EgonSansBlack'; font-size:42.444px;">2</text>
</g>
<g>
	<path class="st1" d="M-56.6,3.1C-42,3.1-30.2,15-30.2,29.5c0,14.6-11.8,26.4-26.4,26.4C-71.1,55.9-83,44.1-83,29.5
		C-83,15-71.1,3.1-56.6,3.1 M-56.6-7.1c-20.2,0-36.6,16.4-36.6,36.6c0,20.2,16.4,36.6,36.6,36.6S-20,49.7-20,29.5
		C-20,9.3-36.4-7.1-56.6-7.1L-56.6-7.1z"/>
	<g>
		
			<rect x="-123.5" y="67" transform="matrix(0.7071 -0.7071 0.7071 0.7071 -80.0503 -49.0036)" class="st1" width="48.7" height="10.2"/>
	</g>
</g>
<path class="st0" d="M-227-195.1h-6c-1.1,0-2-0.9-2-2v-6c0-1.1,0.9-2,2-2h6c1.1,0,2,0.9,2,2v6C-225-196-225.9-195.1-227-195.1z"/>
<path class="st0" d="M-192-195.1h-21c-1.1,0-2-0.9-2-2v-6c0-1.1,0.9-2,2-2h21c1.1,0,2,0.9,2,2v6C-190-196-190.9-195.1-192-195.1z"/>
<path class="st0" d="M-227-175.1h-6c-1.1,0-2-0.9-2-2v-6c0-1.1,0.9-2,2-2h6c1.1,0,2,0.9,2,2v6C-225-176-225.9-175.1-227-175.1z"/>
<path class="st0" d="M-192-175.1h-21c-1.1,0-2-0.9-2-2v-6c0-1.1,0.9-2,2-2h21c1.1,0,2,0.9,2,2v6C-190-176-190.9-175.1-192-175.1z"/>
<g>
	<text transform="matrix(1 0 0 1 -181.5648 -175.1133)" class="st0" style="font-family:'EgonSansBlack'; font-size:42.444px;">2</text>
</g>
<path class="st0" d="M-227-215.1h-6c-1.1,0-2-0.9-2-2v-6c0-1.1,0.9-2,2-2h6c1.1,0,2,0.9,2,2v6C-225-216-225.9-215.1-227-215.1z"/>
<path class="st0" d="M-162-215.1h-51c-1.1,0-2-0.9-2-2v-6c0-1.1,0.9-2,2-2h51c1.1,0,2,0.9,2,2v6C-160-216-160.9-215.1-162-215.1z"/>
<path class="st0" d="M-227-235.1h-6c-1.1,0-2-0.9-2-2v-6c0-1.1,0.9-2,2-2h6c1.1,0,2,0.9,2,2v6C-225-236-225.9-235.1-227-235.1z"/>
<path class="st0" d="M-162-235.1h-51c-1.1,0-2-0.9-2-2v-6c0-1.1,0.9-2,2-2h51c1.1,0,2,0.9,2,2v6C-160-236-160.9-235.1-162-235.1z"/>
<path class="st0" d="M-34.2-201.1h-6c-1.1,0-2-0.9-2-2v-6c0-1.1,0.9-2,2-2h6c1.1,0,2,0.9,2,2v6C-32.2-202-33.1-201.1-34.2-201.1z"/>
<path class="st0" d="M15.8-201.1h-41c-1.1,0-2-0.9-2-2v-6c0-1.1,0.9-2,2-2h41c1.1,0,2,0.9,2,2v6C17.8-202,16.9-201.1,15.8-201.1z"/>
<path class="st0" d="M-34.2-218.1h-6c-1.1,0-2-0.9-2-2v-6c0-1.1,0.9-2,2-2h6c1.1,0,2,0.9,2,2v6C-32.2-219-33.1-218.1-34.2-218.1z"/>
<path class="st0" d="M15.8-218.1h-41c-1.1,0-2-0.9-2-2v-6c0-1.1,0.9-2,2-2h41c1.1,0,2,0.9,2,2v6C17.8-219,16.9-218.1,15.8-218.1z"/>
<path class="st0" d="M-34.2-235.1h-6c-1.1,0-2-0.9-2-2v-6c0-1.1,0.9-2,2-2h6c1.1,0,2,0.9,2,2v6C-32.2-236-33.1-235.1-34.2-235.1z"/>
<path class="st0" d="M15.8-235.1h-41c-1.1,0-2-0.9-2-2v-6c0-1.1,0.9-2,2-2h41c1.1,0,2,0.9,2,2v6C17.8-236,16.9-235.1,15.8-235.1z"/>
<circle class="st2" cx="17.8" cy="-249.3" r="9.2"/>
<text transform="matrix(1 0 0 1 13.7475 -245.0434)" class="st0" style="font-family:'EgonSansBlack'; font-size:14.879px;">2</text>
<path class="st0" d="M78.6-201.1h-6c-1.1,0-2-0.9-2-2v-6c0-1.1,0.9-2,2-2h6c1.1,0,2,0.9,2,2v6C80.6-202,79.7-201.1,78.6-201.1z"/>
<path class="st0" d="M118.6-201.1h-31c-1.1,0-2-0.9-2-2v-6c0-1.1,0.9-2,2-2h31c1.1,0,2,0.9,2,2v6C120.6-202,119.7-201.1,118.6-201.1
	z"/>
<path class="st0" d="M78.6-218.1h-6c-1.1,0-2-0.9-2-2v-6c0-1.1,0.9-2,2-2h6c1.1,0,2,0.9,2,2v6C80.6-219,79.7-218.1,78.6-218.1z"/>
<path class="st0" d="M118.6-218.1h-31c-1.1,0-2-0.9-2-2v-6c0-1.1,0.9-2,2-2h31c1.1,0,2,0.9,2,2v6C120.6-219,119.7-218.1,118.6-218.1
	z"/>
<path class="st0" d="M78.6-235.1h-6c-1.1,0-2-0.9-2-2v-6c0-1.1,0.9-2,2-2h6c1.1,0,2,0.9,2,2v6C80.6-236,79.7-235.1,78.6-235.1z"/>
<path class="st0" d="M118.6-235.1h-31c-1.1,0-2-0.9-2-2v-6c0-1.1,0.9-2,2-2h31c1.1,0,2,0.9,2,2v6C120.6-236,119.7-235.1,118.6-235.1
	z"/>
<path class="st0" d="M217.7-91.3h-6c-1.1,0-2-0.9-2-2v-6c0-1.1,0.9-2,2-2h6c1.1,0,2,0.9,2,2v6C219.7-92.2,218.8-91.3,217.7-91.3z"/>
<path class="st0" d="M257.7-91.3h-31c-1.1,0-2-0.9-2-2v-6c0-1.1,0.9-2,2-2h31c1.1,0,2,0.9,2,2v6C259.7-92.2,258.8-91.3,257.7-91.3z"
	/>
<path class="st0" d="M217.7-108.3h-6c-1.1,0-2-0.9-2-2v-6c0-1.1,0.9-2,2-2h6c1.1,0,2,0.9,2,2v6C219.7-109.2,218.8-108.3,217.7-108.3
	z"/>
<path class="st0" d="M257.7-108.3h-31c-1.1,0-2-0.9-2-2v-6c0-1.1,0.9-2,2-2h31c1.1,0,2,0.9,2,2v6
	C259.7-109.2,258.8-108.3,257.7-108.3z"/>
<path class="st0" d="M217.7-125.3h-6c-1.1,0-2-0.9-2-2v-6c0-1.1,0.9-2,2-2h6c1.1,0,2,0.9,2,2v6C219.7-126.2,218.8-125.3,217.7-125.3
	z"/>
<path class="st0" d="M257.7-125.3h-31c-1.1,0-2-0.9-2-2v-6c0-1.1,0.9-2,2-2h31c1.1,0,2,0.9,2,2v6
	C259.7-126.2,258.8-125.3,257.7-125.3z"/>
<path class="st1" d="M141.3-201.1h-6c-1.1,0-2-0.9-2-2v-6c0-1.1,0.9-2,2-2h6c1.1,0,2,0.9,2,2v6C143.3-202,142.4-201.1,141.3-201.1z"
	/>
<path class="st1" d="M181.3-201.1h-31c-1.1,0-2-0.9-2-2v-6c0-1.1,0.9-2,2-2h31c1.1,0,2,0.9,2,2v6C183.3-202,182.4-201.1,181.3-201.1
	z"/>
<path class="st1" d="M141.3-218.1h-6c-1.1,0-2-0.9-2-2v-6c0-1.1,0.9-2,2-2h6c1.1,0,2,0.9,2,2v6C143.3-219,142.4-218.1,141.3-218.1z"
	/>
<path class="st1" d="M181.3-218.1h-31c-1.1,0-2-0.9-2-2v-6c0-1.1,0.9-2,2-2h31c1.1,0,2,0.9,2,2v6C183.3-219,182.4-218.1,181.3-218.1
	z"/>
<path class="st1" d="M141.3-235.1h-6c-1.1,0-2-0.9-2-2v-6c0-1.1,0.9-2,2-2h6c1.1,0,2,0.9,2,2v6C143.3-236,142.4-235.1,141.3-235.1z"
	/>
<path class="st1" d="M181.3-235.1h-31c-1.1,0-2-0.9-2-2v-6c0-1.1,0.9-2,2-2h31c1.1,0,2,0.9,2,2v6C183.3-236,182.4-235.1,181.3-235.1
	z"/>
<g>
	<circle class="st2" cx="185.5" cy="-249.1" r="9.2"/>
	<text transform="matrix(1 0 0 1 181.4399 -243.8506)" class="st0" style="font-family:'EgonSansBlack'; font-size:14.879px;">2</text>
</g>
<g>
	<path class="st0" d="M333.3-272.1l-14.1-14.1c-2-2-5.1-2-7.1,0l-46,46L243-263.6c-2-2-5.1-2-7.1,0l-14.1,14.1c-2,2-2,5.1,0,7.1
		l40,40.3c0.3,0.3,0.5,0.5,0.8,0.7l0,0c2,2,5.1,2,7.1,0l63.6-63.6C335.3-267,335.3-270.2,333.3-272.1z"/>
</g>
<g>
	<path class="st2" d="M271.5-138.3h-13.2c-0.4,0-0.7-0.3-0.7-0.7v-2.9c0-0.4,0.3-0.7,0.7-0.7h13.2c0.4,0,0.7,0.3,0.7,0.7v2.9
		C272.2-138.6,271.9-138.3,271.5-138.3z"/>
	<path class="st2" d="M267.1-147.1v13.2c0,0.4-0.3,0.7-0.7,0.7h-2.9c-0.4,0-0.7-0.3-0.7-0.7v-13.2c0-0.4,0.3-0.7,0.7-0.7h2.9
		C266.7-147.9,267.1-147.5,267.1-147.1z"/>
</g>
<path class="st0" d="M291.1-108.3h-6c-1.1,0-2-0.9-2-2v-6c0-1.1,0.9-2,2-2h6c1.1,0,2,0.9,2,2v6C293.1-109.2,292.2-108.3,291.1-108.3
	z"/>
<path class="st0" d="M331.1-108.3h-31c-1.1,0-2-0.9-2-2v-6c0-1.1,0.9-2,2-2h31c1.1,0,2,0.9,2,2v6
	C333.1-109.2,332.2-108.3,331.1-108.3z"/>
<path class="st0" d="M291.1-125.3h-6c-1.1,0-2-0.9-2-2v-6c0-1.1,0.9-2,2-2h6c1.1,0,2,0.9,2,2v6C293.1-126.2,292.2-125.3,291.1-125.3
	z"/>
<path class="st0" d="M331.1-125.3h-31c-1.1,0-2-0.9-2-2v-6c0-1.1,0.9-2,2-2h31c1.1,0,2,0.9,2,2v6
	C333.1-126.2,332.2-125.3,331.1-125.3z"/>
<g>
	<path class="st2" d="M343.7-138.3h-11.4c-0.3,0-0.6-0.3-0.6-0.6v-2.5c0-0.3,0.3-0.6,0.6-0.6h11.4c0.3,0,0.6,0.3,0.6,0.6v2.5
		C344.4-138.6,344.1-138.3,343.7-138.3z"/>
	<path class="st2" d="M339.9-145.9v11.4c0,0.3-0.3,0.6-0.6,0.6h-2.5c-0.3,0-0.6-0.3-0.6-0.6v-11.4c0-0.3,0.3-0.6,0.6-0.6h2.5
		C339.7-146.5,339.9-146.2,339.9-145.9z"/>
</g>
<g>
	<path class="st0" d="M12.2,85.9H3c-1.7,0-3-1.4-3-3v-9.1c0-1.7,1.4-3,3-3h9.1c1.7,0,3,1.4,3,3v9.1C15.2,84.5,13.8,85.9,12.2,85.9z"
		/>
	<path class="st0" d="M72.9,85.9H25.8c-1.7,0-3-1.4-3-3v-9.1c0-1.7,1.4-3,3-3h47.1c1.7,0,3,1.4,3,3v9.1C76,84.5,74.6,85.9,72.9,85.9
		z"/>
	<path class="st0" d="M12.2,60.1H3c-1.7,0-3-1.4-3-3v-9.1c0-1.7,1.4-3,3-3h9.1c1.7,0,3,1.4,3,3V57C15.2,58.7,13.8,60.1,12.2,60.1z"
		/>
	<path class="st0" d="M72.9,60.1H25.8c-1.7,0-3-1.4-3-3v-9.1c0-1.7,1.4-3,3-3h47.1c1.7,0,3,1.4,3,3V57C76,58.7,74.6,60.1,72.9,60.1z
		"/>
	<path class="st0" d="M12.2,34.2H3c-1.7,0-3-1.4-3-3v-9.1c0-1.7,1.4-3,3-3h9.1c1.7,0,3,1.4,3,3v9.1C15.2,32.9,13.8,34.2,12.2,34.2z"
		/>
	<path class="st0" d="M72.9,34.2H25.8c-1.7,0-3-1.4-3-3v-9.1c0-1.7,1.4-3,3-3h47.1c1.7,0,3,1.4,3,3v9.1C76,32.9,74.6,34.2,72.9,34.2
		z"/>
	<g>
		<path class="st2" d="M93.9,14.5H73.8c-0.6,0-1.1-0.5-1.1-1.1V8.9c0-0.6,0.5-1.1,1.1-1.1h20.1c0.6,0,1.1,0.5,1.1,1.1v4.5
			C95,14,94.5,14.5,93.9,14.5z"/>
		<path class="st2" d="M87.2,1.1v20.1c0,0.6-0.5,1.1-1.1,1.1h-4.5c-0.6,0-1.1-0.5-1.1-1.1V1.1C80.5,0.5,81,0,81.6,0h4.5
			C86.7,0,87.2,0.5,87.2,1.1z"/>
	</g>
</g>
</svg>
