<?xml version="1.0" encoding="utf-8"?>
<!-- Generator: Adobe Illustrator 21.0.0, SVG Export Plug-In . SVG Version: 6.00 Build 0)  -->
<svg version="1.1" id="Layer_1" xmlns="http://www.w3.org/2000/svg" xmlns:xlink="http://www.w3.org/1999/xlink" x="0px" y="0px"
	 viewBox="0 0 105.8 96.6" style="enable-background:new 0 0 105.8 96.6;" xml:space="preserve">
<style type="text/css">
	.st0{fill:#FFFFFF;}
	.st1{fill:#344551;}
	.st2{fill:#F2D73D;}
</style>
<g>
	<path class="st0" d="M12.2,96.6H3c-1.7,0-3-1.4-3-3v-9.1c0-1.7,1.4-3,3-3h9.1c1.7,0,3,1.4,3,3v9.1C15.2,95.3,13.8,96.6,12.2,96.6z"
		/>
	<path class="st0" d="M72.9,96.6H25.8c-1.7,0-3-1.4-3-3v-9.1c0-1.7,1.4-3,3-3h47.1c1.7,0,3,1.4,3,3v9.1C76,95.3,74.6,96.6,72.9,96.6
		z"/>
	<path class="st0" d="M12.2,70.8H3c-1.7,0-3-1.4-3-3v-9.1c0-1.7,1.4-3,3-3h9.1c1.7,0,3,1.4,3,3v9.1C15.2,69.4,13.8,70.8,12.2,70.8z"
		/>
	<path class="st0" d="M72.9,70.8H25.8c-1.7,0-3-1.4-3-3v-9.1c0-1.7,1.4-3,3-3h47.1c1.7,0,3,1.4,3,3v9.1C76,69.4,74.6,70.8,72.9,70.8
		z"/>
	<path class="st0" d="M12.2,45H3c-1.7,0-3-1.4-3-3v-9.1c0-1.7,1.4-3,3-3h9.1c1.7,0,3,1.4,3,3v9.1C15.2,43.6,13.8,45,12.2,45z"/>
	<path class="st0" d="M72.9,45H25.8c-1.7,0-3-1.4-3-3v-9.1c0-1.7,1.4-3,3-3h47.1c1.7,0,3,1.4,3,3v9.1C76,43.6,74.6,45,72.9,45z"/>
</g>
<g>
	<path class="st2" d="M103.9,24.7H69.7c-1.1,0-1.9-0.9-1.9-1.9v-7.6c0-1.1,0.9-1.9,1.9-1.9h34.2c1.1,0,1.9,0.9,1.9,1.9v7.6
		C105.8,23.9,105,24.7,103.9,24.7z"/>
	<path class="st2" d="M92.5,1.9v34.2c0,1.1-0.9,1.9-1.9,1.9H83c-1.1,0-1.9-0.9-1.9-1.9V1.9C81.1,0.9,81.9,0,83,0h7.6
		C91.7,0,92.5,0.9,92.5,1.9z"/>
</g>
</svg>
