<?xml version="1.0" encoding="utf-8"?>
<!-- Generator: Adobe Illustrator 21.0.0, SVG Export Plug-In . SVG Version: 6.00 Build 0)  -->
<svg version="1.1" id="Layer_1" xmlns="http://www.w3.org/2000/svg" xmlns:xlink="http://www.w3.org/1999/xlink" x="0px" y="0px"
	 viewBox="0 0 2500 2500" style="enable-background:new 0 0 2500 2500;" xml:space="preserve">
<style type="text/css">
	.st0{fill:#FFFFFF;}
</style>
<g>
	<path class="st0" d="M2063.7,436.3c-226.5-223.9-497.3-335.9-814.9-335.9c-315.1,0-588.5,112-812.4,335.9
		c-223.9,223.9-335.9,497.3-335.9,812.3c0,317.7,111.9,588.5,335.9,815c223.9,224,497.3,335.9,812.4,335.9
		c317.7,0,588.4-112,814.9-335.9c223.9-226.5,335.9-497.3,335.9-815C2399.6,933.6,2287.6,660.3,2063.7,436.3L2063.7,436.3z
		 M1639.3,772.2h-197.9v184.9h-270.8V683.7l140.6-143.2h458.3L1910,683.7v481.7l-468.7,393.1v117.2h466.1v242.1h-736.8v-484.3
		l468.6-393.2L1639.3,772.2L1639.3,772.2L1639.3,772.2z M746.2,561.3l210.9-20.8v1377.4H686.3V756.6H514.4V623.8L746.2,561.3
		L746.2,561.3z"/>
</g>
</svg>
