<?xml version="1.0" encoding="utf-8"?>
<!-- Generator: Adobe Illustrator 21.0.0, SVG Export Plug-In . SVG Version: 6.00 Build 0)  -->
<svg version="1.1" id="Layer_1" xmlns="http://www.w3.org/2000/svg" xmlns:xlink="http://www.w3.org/1999/xlink" x="0px" y="0px"
	 viewBox="0 0 95 85.9" style="enable-background:new 0 0 95 85.9;" xml:space="preserve">
<style type="text/css">
	.st0{fill:#FFFFFF;}
	.st1{fill:#344551;}
	.st2{fill:#F2D73D;}
	.st3{opacity:0.8;}
</style>
<g class="st3">
	<g>
		<path class="st1" d="M15.2,65.7H3.8c-2.1,0-3.8,1.7-3.8,3.8v11.4c0,2.1,1.7,3.8,3.8,3.8h11.4c2.1,0,3.8-1.7,3.8-3.8V69.5
			C19,67.5,17.3,65.7,15.2,65.7L15.2,65.7z"/>
	</g>
	<g>
		<path class="st1" d="M91.2,65.7H32.3c-2.1,0-3.8,1.7-3.8,3.8v11.4c0,2.1,1.7,3.8,3.8,3.8h58.9c2.1,0,3.8-1.7,3.8-3.8V69.5
			C95,67.5,93.3,65.7,91.2,65.7L91.2,65.7z"/>
	</g>
	<g>
		<path class="st1" d="M15.2,33.4H3.8c-2.1,0-3.8,1.7-3.8,3.8v11.4c0,2.1,1.7,3.8,3.8,3.8h11.4c2.1,0,3.8-1.7,3.8-3.8V37.2
			C19,35.2,17.3,33.4,15.2,33.4L15.2,33.4z"/>
	</g>
	<g>
		<path class="st1" d="M91.2,33.4H32.3c-2.1,0-3.8,1.7-3.8,3.8v11.4c0,2.1,1.7,3.8,3.8,3.8h58.9c2.1,0,3.8-1.7,3.8-3.8V37.2
			C95,35.2,93.3,33.4,91.2,33.4L91.2,33.4z"/>
	</g>
	<g>
		<path class="st1" d="M15.2,1.1H3.8C1.7,1.1,0,2.9,0,4.9v11.4c0,2.1,1.7,3.8,3.8,3.8h11.4c2.1,0,3.8-1.7,3.8-3.8V4.9
			C19,2.9,17.3,1.1,15.2,1.1L15.2,1.1z"/>
	</g>
	<g>
		<path class="st1" d="M91.2,1.1H32.3c-2.1,0-3.8,1.7-3.8,3.8v11.4c0,2.1,1.7,3.8,3.8,3.8h58.9c2.1,0,3.8-1.7,3.8-3.8V4.9
			C95,2.9,93.3,1.1,91.2,1.1L91.2,1.1z"/>
	</g>
</g>
</svg>
