<?xml version="1.0" encoding="utf-8"?>
<!-- Generator: Adobe Illustrator 21.0.0, SVG Export Plug-In . SVG Version: 6.00 Build 0)  -->
<svg version="1.1" id="Layer_1" xmlns="http://www.w3.org/2000/svg" xmlns:xlink="http://www.w3.org/1999/xlink" x="0px" y="0px"
	 viewBox="0 0 99.5 76.8" style="enable-background:new 0 0 99.5 76.8;" xml:space="preserve">
<style type="text/css">
	.st0{fill:#FFFFFF;}
	.st1{fill:#344551;}
	.st2{fill:#F2D73D;}
	.st3{opacity:0.8;}
	.st4{opacity:0.8;fill:#344551;}
	.st5{enable-background:new    ;}
	.st6{opacity:0.4;fill:#FFFFFF;enable-background:new    ;}
</style>
<g>
	<path class="st0" d="M95.7,47.9H28.9c-2.1,0-3.8-1.7-3.8-3.8V32.7c0-2.1,1.7-3.8,3.8-3.8h66.8c2.1,0,3.8,1.7,3.8,3.8v11.4
		C99.5,46.2,97.8,47.9,95.7,47.9z"/>
	<path class="st0" d="M49.1,62.2L25.3,38.4l23.8-23.8c1.5-1.5,1.5-3.9,0-5.4l-8.1-8.1c-1.5-1.5-3.9-1.5-5.4,0L9.2,27.6l-8.1,8.1
		c-1.5,1.5-1.5,3.9,0,5.4l8.1,8.1l26.5,26.5c1.5,1.5,3.9,1.5,5.4,0l8.1-8.1C50.6,66.1,50.6,63.7,49.1,62.2z"/>
</g>
</svg>
