<?xml version="1.0" encoding="utf-8"?>
<!-- Generator: Adobe Illustrator 21.0.0, SVG Export Plug-In . SVG Version: 6.00 Build 0)  -->
<svg version="1.1" id="Layer_1" xmlns="http://www.w3.org/2000/svg" xmlns:xlink="http://www.w3.org/1999/xlink" x="0px" y="0px"
	 viewBox="0 0 2500 2500" style="enable-background:new 0 0 2500 2500;" xml:space="preserve">
<style type="text/css">
	.st0{fill:#FFFFFF;}
</style>
<path class="st0" d="M2061.2,440.1c-225.5-222.9-495-334.3-811.2-334.3c-316.1,0-585.7,111.4-808.6,334.3
	c-222.9,220.3-336.9,492.4-336.9,808.6c0,316.2,114,585.7,336.9,811.2c222.9,222.9,492.4,334.3,808.6,334.3
	c316.2,0,585.7-111.4,811.2-334.3c222.9-225.5,334.3-495,334.3-811.2v0C2395.5,932.5,2284,660.4,2061.2,440.1z M783.5,450.5
	c70-23.3,124.4-25.9,168.5-5.2c15.6,10.4,33.7,49.2,51.9,121.8c18.2,70,31.1,108.9,38.9,108.9c13,5.1,44.1-10.4,93.3-44.1
	c49.2-36.3,77.7-54.4,90.7-54.4c13,0,44.1,23.3,93.3,69.9l0,0c46.6,46.7,59.6,70,38.9,70c-7.8,0-28.5-10.3-67.4-36.3
	c-36.3-20.7-62.2-33.7-72.6-33.7l-93.3,70c-57.1,46.7-93.3,64.8-116.6,59.6c-18.2-5.2-36.3-44-54.4-121.8
	c-20.7-72.6-33.7-114-49.2-116.6c-15.6-2.6-57,15.6-121.9,54.4c-49.2,28.5-80.3,20.8-90.7-23.3C674.6,515.3,708.3,476.4,783.5,450.5
	z M1177.4,1072.5c-25.9,82.9-54.4,129.5-83,137.4c-25.9,7.8-80.3-25.9-160.6-103.7C848.3,1025.8,804.2,987,796.4,987
	c-7.7,2.6-18.1,20.7-31.1,59.6l-36.3,127c-38.9,127-82.9,202.2-127,228.1l-90.7,7.8c-23.3-7.8-36.3-28.5-44-54.4
	c-5.2-23.3-2.6-46.7,10.4-69.9c13-23.3,36.3-36.3,67.4-41.5c33.7-5.2,69.9-67.4,108.8-181.4c44.1-121.8,80.4-186.6,108.9-194.4
	c25.9-10.3,85.5,25.9,171,108.9c88.1,82.9,134.7,121.8,140,121.8c12.9-5.2,31.1-44,54.4-111.4c25.9-72.6,46.7-108.9,59.6-119.2
	c23.3-10.3,82.9-20.7,176.2-31.1h0l147.7,5.2c2.6,13-41.5,31.1-129.6,51.8l-152.9,44.1L1177.4,1072.5z M1900.5,743.3
	c-2.6,80.3-25.9,155.5-72.6,225.4c-31.1,51.8-72.6,98.5-121.8,137.4c-38.9,31.1-59.6,51.8-59.6,59.6c-2.6,13,5.1,25.9,23.4,41.5
	l49.2,41.4c44,38.9,54.4,88.1,28.5,147.7c-51.8,121.9-67.4,248.8-57,381l46.6,199.5c12.9,62.2,12.9,98.5-7.8,106.2
	c-23.3,7.8-64.8-51.9-134.8-186.6c-67.3-145.1-116.6-217.7-137.3-225.5c-25.9-5.2-33.7,77.7-23.3,251.4c7.8,178.8,0,267-20.8,264.3
	c-23.3-2.6-46.7-44-77.8-121.8c-28.5-77.8-51.8-168.5-64.8-272.1c-44.1-269.6-20.7-453.5,67.4-549.4c28.5-33.7,67.4-51.8,114-57
	c44-5.2,70-15.5,80.3-31.1c7.8-13,5.2-25.9-5.1-36.3l-36.3-33.7c-41.5-36.3-51.9-80.3-33.7-137.3c44,59.6,90.7,95.8,137.3,103.6
	c41.5,10.3,77.8-7.8,108.9-46.7c44.1-59.6,46.6-127,15.6-199.5c-36.3-85.5-111.5-124.4-217.7-119.2c15.6-70,62.2-119.2,124.4-147.8
	c64.8-28.5,127-23.3,189.2,13h0C1877.2,587.8,1905.7,652.6,1900.5,743.3z"/>
</svg>
