<?xml version="1.0" encoding="utf-8"?>
<!-- Generator: Adobe Illustrator 21.0.0, SVG Export Plug-In . SVG Version: 6.00 Build 0)  -->
<svg version="1.1" id="Layer_1" xmlns="http://www.w3.org/2000/svg" xmlns:xlink="http://www.w3.org/1999/xlink" x="0px" y="0px"
	 viewBox="0 0 2500 2500" style="enable-background:new 0 0 2500 2500;" xml:space="preserve">
<style type="text/css">
	.st0{fill:#FFFFFF;}
</style>
<g>
	<path class="st0" d="M2387.5,1250c0-314.3-110.8-584.8-332.4-806.4c-221.6-221.6-489.5-332.3-803.8-332.3S669,222,444.9,443.6
		C223.3,665.2,112.5,935.7,112.5,1250c0,311.8,110.8,582.3,332.4,803.9C669,2278,937,2388.8,1251.3,2388.8s582.3-110.8,803.8-334.9
		C2276.7,1832.2,2387.5,1561.7,2387.5,1250L2387.5,1250z M1825.8,935.7c-5.1,48.9-30.9,110.7-74.7,188
		c-49,85-92.8,136.6-136.6,154.6c-33.5,15.5-110.8,38.6-239.6,69.6c121.1,12.9,195.8,12.9,221.6,0l126.3-46.4
		c67-28.4,108.2-49,121.1-64.4l136.6-224.1c77.3-128.8,123.6-190.7,139.1-182.9c48.9,28.4,38.6,108.2-28.4,242.2
		c-59.2,118.5-116,198.4-164.9,242.2c-12.9,12.9-64.4,31-149.4,56.7l-162.3,46.4l-255.1-20.6c265.3,77.3,417.4,136.6,458.6,177.8
		c38.6,33.5,74.7,100.5,108.2,190.7c33.5,103,28.4,162.3-18.1,175.2c-18,5.1-46.4-41.3-90.2-141.7l-74.8-177.8
		c-5.1-7.8-59.2-36.1-162.3-79.9l-231.9-97.9l123.6,82.4c25.8,20.6,51.6,61.8,82.5,134c28.4,64.4,41.2,115.9,38.6,146.8
		c-2.6,43.8-30.9,118.5-85,221.6c-59.3,113.4-103.1,157.2-128.9,131.4c-10.3-10.3,5.2-74.7,46.4-188.1l69.6-195.8
		c5.1-12.9-2.6-46.4-23.3-100.5c-18-51.6-36-85-46.3-97.9l-64.4-56.7c-28.4-23.2-43.8-23.2-43.8-7.7v48.9c0,15.4-7.8,23.2-23.2,23.2
		c-15.5,0-23.2-7.8-23.2-23.2v-51.5c0-10.3-7.7-15.4-23.2-15.4s-23.2,5.2-23.2,18.1v48.9c0,15.4-7.8,23.2-23.2,23.2
		c-15.4,0-25.8-7.8-25.8-23.2v-48.9c0-15.5-12.9-15.5-41.2,7.7l-61.8,56.7c-12.9,10.3-28.4,46.4-49,97.9
		c-18,54.1-28.4,87.6-25.8,100.5l72.2,195.8c38.6,113.4,56.7,177.8,49,188.1c-25.7,25.8-69.6-18.1-128.8-131.4
		c-56.7-103-85-177.8-87.6-221.6c-2.6-30.9,10.3-82.4,38.7-146.8c30.9-72.2,56.7-113.4,85-134l121.1-82.4l-231.9,97.9
		c-103.1,43.8-157.2,72.1-164.9,79.9l-72.2,177.8c-41.2,100.4-69.6,146.8-90.2,141.7c-46.4-12.9-51.5-72.2-15.5-175.2
		c30.9-90.2,67-157.2,105.6-190.7c43.8-41.2,195.9-100.5,458.6-177.8l-255.1,20.6l-162.3-46.4c-87.6-25.8-136.5-43.8-149.4-56.7
		c-51.5-43.8-105.6-123.7-164.9-242.2c-69.5-134-79.9-213.8-28.4-242.2c12.9-7.7,61.9,54.1,139.2,182.9l134,224.1
		c12.9,15.4,54.1,36.1,121.1,64.4l131.4,46.4c25.8,12.9,100.5,12.9,221.6,0l-242.2-69.6c-43.8-18-87.6-69.5-136.6-154.6
		c-43.8-79.9-67-141.7-72.1-188c0-23.2,10.3-69.6,30.9-146.9l85-234.4c87.6-211.3,157.1-306.6,211.3-291.1
		c20.6,5.1-7.7,115.9-79.9,332.3L803,946c0,18,15.5,61.8,51.5,134c36.1,72.1,61.8,115.9,82.4,128.8l234.5,77.3l-97.9-95.3
		c-56.7-59.2-85.1-105.6-85.1-141.7c0-85,33.5-182.9,95.3-293.7c64.4-105.7,118.5-159.8,164.9-159.8c46.4,0,100.5,54.1,162.3,159.8
		C1475.4,866.1,1509,964,1509,1049c0,36.1-31,82.5-87.6,141.7L1326,1286l234.5-77.3c20.6-12.9,46.4-56.7,82.4-128.8
		c36-69.6,54.1-115.9,51.5-134l-118.5-350.4c-74.8-216.4-100.5-327.2-82.4-332.3c56.7-15.5,128.8,79.9,213.8,291.1l85.1,234.5
		C1815.5,866.1,1825.8,912.5,1825.8,935.7z"/>
</g>
</svg>
