<?xml version="1.0" encoding="utf-8"?>
<!-- Generator: Adobe Illustrator 21.0.0, SVG Export Plug-In . SVG Version: 6.00 Build 0)  -->
<svg version="1.1" id="Layer_1" xmlns="http://www.w3.org/2000/svg" xmlns:xlink="http://www.w3.org/1999/xlink" x="0px" y="0px"
	 viewBox="0 0 103.5 105.3" style="enable-background:new 0 0 103.5 105.3;" xml:space="preserve">
<style type="text/css">
	.st0{fill:#FFFFFF;}
</style>
<g>
	<path class="st0" d="M12.2,105.3H3c-1.7,0-3-1.4-3-3v-9.1c0-1.7,1.4-3,3-3h9.1c1.7,0,3,1.4,3,3v9.1C15.2,104,13.8,105.3,12.2,105.3
		z"/>
	<path class="st0" d="M72.9,105.3H25.8c-1.7,0-3-1.4-3-3v-9.1c0-1.7,1.4-3,3-3h47.1c1.7,0,3,1.4,3,3v9.1
		C76,104,74.6,105.3,72.9,105.3z"/>
	<path class="st0" d="M12.2,79.5H3c-1.7,0-3-1.4-3-3v-9.1c0-1.7,1.4-3,3-3h9.1c1.7,0,3,1.4,3,3v9.1C15.2,78.1,13.8,79.5,12.2,79.5z"
		/>
	<path class="st0" d="M72.9,79.5H25.8c-1.7,0-3-1.4-3-3v-9.1c0-1.7,1.4-3,3-3h47.1c1.7,0,3,1.4,3,3v9.1C76,78.1,74.6,79.5,72.9,79.5
		z"/>
	<path class="st0" d="M12.2,53.7H3c-1.7,0-3-1.4-3-3v-9.1c0-1.7,1.4-3,3-3h9.1c1.7,0,3,1.4,3,3v9.1C15.2,52.3,13.8,53.7,12.2,53.7z"
		/>
	<path class="st0" d="M72.9,53.7H25.8c-1.7,0-3-1.4-3-3v-9.1c0-1.7,1.4-3,3-3h47.1c1.7,0,3,1.4,3,3v9.1C76,52.3,74.6,53.7,72.9,53.7
		z"/>
</g>
<g>
	<path class="st0" d="M94.9,32.8L70.7,8.6c-0.8-0.8-0.7-2,0-2.7l5.4-5.4c0.8-0.8,2-0.7,2.7,0l24.2,24.2c0.8,0.8,0.7,2,0,2.7
		l-5.4,5.4C96.8,33.6,95.6,33.6,94.9,32.8z"/>
	<path class="st0" d="M102.9,8.6L78.7,32.8c-0.8,0.8-2,0.7-2.7,0l-5.4-5.4c-0.8-0.8-0.7-2,0-2.7L94.9,0.6c0.7-0.7,1.9-0.8,2.7,0
		l5.4,5.4C103.7,6.7,103.6,7.9,102.9,8.6z"/>
</g>
</svg>
