<?xml version="1.0" encoding="utf-8"?>
<!-- Generator: Adobe Illustrator 21.0.0, SVG Export Plug-In . SVG Version: 6.00 Build 0)  -->
<svg version="1.1" id="Layer_1" xmlns="http://www.w3.org/2000/svg" xmlns:xlink="http://www.w3.org/1999/xlink" x="0px" y="0px"
	 viewBox="0 0 65 97.9" style="enable-background:new 0 0 65 97.9;" xml:space="preserve">
<style type="text/css">
	.st0{fill:#FFFFFF;}
	.st1{fill:#344551;}
	.st2{fill:#F2D73D;}
	.st3{opacity:0.8;}
	.st4{opacity:0.8;fill:#344551;}
	.st5{enable-background:new    ;}
	.st6{opacity:0.4;fill:#FFFFFF;enable-background:new    ;}
	.st7{fill:#7068D5;}
</style>
<path class="st0" d="M61.6,97.9H3.4c-1.9,0-3.4-1.5-3.4-3.4V3.4C0,1.5,1.5,0,3.4,0h58.1C63.5,0,65,1.5,65,3.4v91.1
	C65,96.4,63.5,97.9,61.6,97.9z"/>
<path class="st7" d="M53.2,79.7h-6.9c-1.3,0-2.3,1-2.3,2.3v7.4c0,0.8-0.9,1.4-1.6,1L19,80c-0.4-0.2-0.9-0.3-1.4-0.3h-5.7
	c-1.9,0-3.4-1.5-3.4-3.4V16.1c0-1.9,1.5-3.4,3.4-3.4h41.3c1.9,0,3.4,1.5,3.4,3.4v60.1C56.6,78.2,55,79.7,53.2,79.7z"/>
<path class="st7" d="M40.3,8H24.7c-0.7,0-1.2-0.5-1.2-1.2v0c0-0.7,0.5-1.2,1.2-1.2h15.6c0.7,0,1.2,0.5,1.2,1.2v0
	C41.5,7.5,41,8,40.3,8z"/>
</svg>
